# xmcd
#
# Track frame offsets:
#	182
#	24867
#	37542
#	53142
#	70762
#	84842
#	109090
#	127032
#	141252
#	154962
#	168832
#	182510
#	196522
#	211520
#	224162
#	239557
#	252515
#	266315
#	279997
#	292715
#
# Disc length: 4087 seconds
#
# Revision: 0
# Processed by: cddbd v1.5.2PL0 Copyright (c) Steve Scherf et al.
# Submitted via: dBpowerAMP V4.0
#
DISCID=0c0ff514
DTITLE=John Lee Hooker - John Lee Hooker
DYEAR=1900
DGENRE=Blues
TTITLE0=The Waterfront
TTITLE1=In The Mood
TTITLE2=I'll Never Trust You Again
TTITLE3=You Know, I Know
TTITLE4=One Bourbon, One Scotch, One Beer
TTITLE5=I Put My Trust In You
TTITLE6=Peace Lovin Man
TTITLE7=Stella Mae
TTITLE8=Women And Money
TTITLE9=It's My Own Fault Darling
TTITLE10=Down At The Landing
TTITLE11=Love Blues
TTITLE12=Sugar Mama
TTITLE13=Walking The Boogle
TTITLE14=Rambling By Myself
TTITLE15=Leave My Wife Alone
TTITLE16=Ground Hog Blues
TTITLE17=Union State Blues
TTITLE18=High Priced Woman
TTITLE19=Louise
EXTD=
EXTT0=
EXTT1=
EXTT2=
EXTT3=
EXTT4=
EXTT5=
EXTT6=
EXTT7=
EXTT8=
EXTT9=
EXTT10=
EXTT11=
EXTT12=
EXTT13=
EXTT14=
EXTT15=
EXTT16=
EXTT17=
EXTT18=
EXTT19=
PLAYORDER=
